{
    "asset" : {
        "generator" : "Khronos glTF Blender I/O v1.7.33",
        "version" : "2.0"
    },
    "scene" : 0,
    "scenes" : [
        {
            "name" : "Scene",
            "nodes" : [
                0
            ]
        }
    ],
    "nodes" : [
        {
            "mesh" : 0,
            "name" : "Sphere",
            "scale" : [
                0.33686524629592896,
                0.33686524629592896,
                0.33686524629592896
            ]
        }
    ],
    "materials" : [
        {
            "doubleSided" : true,
            "name" : "Material.001",
            "pbrMetallicRoughness" : {
                "baseColorFactor" : [
                    0.21921895444393158,
                    0,
                    0.8000000715255737,
                    1
                ],
                "metallicFactor" : 0,
                "roughnessFactor" : 0.5
            }
        },
        {
            "doubleSided" : true,
            "name" : "Material.002",
            "pbrMetallicRoughness" : {
                "baseColorFactor" : [
                    0.17767086625099182,
                    0.808201014995575,
                    1,
                    1
                ],
                "metallicFactor" : 0,
                "roughnessFactor" : 0.5
            }
        },
        {
            "doubleSided" : true,
            "name" : "Material.003",
            "pbrMetallicRoughness" : {
                "baseColorFactor" : [
                    0.8000000715255737,
                    0.7679440379142761,
                    0,
                    1
                ],
                "metallicFactor" : 0,
                "roughnessFactor" : 0.5
            }
        },
        {
            "doubleSided" : true,
            "name" : "Material.004",
            "pbrMetallicRoughness" : {
                "baseColorFactor" : [
                    0.8000000715255737,
                    0.7679440379142761,
                    0,
                    1
                ],
                "metallicFactor" : 0,
                "roughnessFactor" : 0.5
            }
        },
        {
            "doubleSided" : true,
            "name" : "Material.005",
            "pbrMetallicRoughness" : {
                "baseColorFactor" : [
                    0.8000000715255737,
                    0.7679440379142761,
                    0,
                    1
                ],
                "metallicFactor" : 0,
                "roughnessFactor" : 0.5
            }
        },
        {
            "doubleSided" : true,
            "name" : "Material.006",
            "pbrMetallicRoughness" : {
                "baseColorFactor" : [
                    0.8000000715255737,
                    0.7679440379142761,
                    0,
                    1
                ],
                "metallicFactor" : 0,
                "roughnessFactor" : 0.5
            }
        },
        {
            "doubleSided" : true,
            "name" : "Material.007",
            "pbrMetallicRoughness" : {
                "baseColorFactor" : [
                    0.8000000715255737,
                    0.7679440379142761,
                    0,
                    1
                ],
                "metallicFactor" : 0,
                "roughnessFactor" : 0.5
            }
        },
        {
            "doubleSided" : true,
            "name" : "Material.008",
            "pbrMetallicRoughness" : {
                "baseColorFactor" : [
                    0.8000000715255737,
                    0.7679440379142761,
                    0,
                    1
                ],
                "metallicFactor" : 0,
                "roughnessFactor" : 0.5
            }
        },
        {
            "doubleSided" : true,
            "name" : "Material.011",
            "pbrMetallicRoughness" : {
                "baseColorFactor" : [
                    0.8000000715255737,
                    0.7679440379142761,
                    0,
                    1
                ],
                "metallicFactor" : 0,
                "roughnessFactor" : 0.5
            }
        },
        {
            "doubleSided" : true,
            "name" : "Material.010",
            "pbrMetallicRoughness" : {
                "baseColorFactor" : [
                    0.8000000715255737,
                    0.7679440379142761,
                    0,
                    1
                ],
                "metallicFactor" : 0,
                "roughnessFactor" : 0.5
            }
        },
        {
            "doubleSided" : true,
            "name" : "Material.009",
            "pbrMetallicRoughness" : {
                "baseColorFactor" : [
                    0.8000000715255737,
                    0.7679440379142761,
                    0,
                    1
                ],
                "metallicFactor" : 0,
                "roughnessFactor" : 0.5
            }
        }
    ],
    "meshes" : [
        {
            "name" : "Sphere",
            "primitives" : [
                {
                    "attributes" : {
                        "POSITION" : 0,
                        "NORMAL" : 1,
                        "TEXCOORD_0" : 2
                    },
                    "indices" : 3,
                    "material" : 0
                },
                {
                    "attributes" : {
                        "POSITION" : 4,
                        "NORMAL" : 5,
                        "TEXCOORD_0" : 6
                    },
                    "indices" : 7,
                    "material" : 1
                },
                {
                    "attributes" : {
                        "POSITION" : 8,
                        "NORMAL" : 9,
                        "TEXCOORD_0" : 10
                    },
                    "indices" : 11,
                    "material" : 2
                },
                {
                    "attributes" : {
                        "POSITION" : 12,
                        "NORMAL" : 13,
                        "TEXCOORD_0" : 14
                    },
                    "indices" : 11,
                    "material" : 3
                },
                {
                    "attributes" : {
                        "POSITION" : 15,
                        "NORMAL" : 16,
                        "TEXCOORD_0" : 17
                    },
                    "indices" : 18,
                    "material" : 4
                },
                {
                    "attributes" : {
                        "POSITION" : 19,
                        "NORMAL" : 20,
                        "TEXCOORD_0" : 21
                    },
                    "indices" : 22,
                    "material" : 5
                },
                {
                    "attributes" : {
                        "POSITION" : 23,
                        "NORMAL" : 24,
                        "TEXCOORD_0" : 25
                    },
                    "indices" : 26,
                    "material" : 6
                },
                {
                    "attributes" : {
                        "POSITION" : 27,
                        "NORMAL" : 28,
                        "TEXCOORD_0" : 29
                    },
                    "indices" : 30,
                    "material" : 7
                },
                {
                    "attributes" : {
                        "POSITION" : 31,
                        "NORMAL" : 32,
                        "TEXCOORD_0" : 33
                    },
                    "indices" : 34,
                    "material" : 8
                },
                {
                    "attributes" : {
                        "POSITION" : 35,
                        "NORMAL" : 36,
                        "TEXCOORD_0" : 37
                    },
                    "indices" : 38,
                    "material" : 9
                },
                {
                    "attributes" : {
                        "POSITION" : 39,
                        "NORMAL" : 40,
                        "TEXCOORD_0" : 41
                    },
                    "indices" : 42,
                    "material" : 10
                }
            ]
        }
    ],
    "accessors" : [
        {
            "bufferView" : 0,
            "componentType" : 5126,
            "count" : 1984,
            "max" : [
                0.9999997019767761,
                1,
                0.9999994039535522
            ],
            "min" : [
                -0.9999990463256836,
                -1,
                -0.9999987483024597
            ],
            "type" : "VEC3"
        },
        {
            "bufferView" : 1,
            "componentType" : 5126,
            "count" : 1984,
            "type" : "VEC3"
        },
        {
            "bufferView" : 2,
            "componentType" : 5126,
            "count" : 1984,
            "type" : "VEC2"
        },
        {
            "bufferView" : 3,
            "componentType" : 5123,
            "count" : 2880,
            "type" : "SCALAR"
        },
        {
            "bufferView" : 4,
            "componentType" : 5126,
            "count" : 2304,
            "max" : [
                3.0799999237060547,
                0.07000000774860382,
                3.0799999237060547
            ],
            "min" : [
                -3.0799999237060547,
                -0.07000000774860382,
                -3.0799999237060547
            ],
            "type" : "VEC3"
        },
        {
            "bufferView" : 5,
            "componentType" : 5126,
            "count" : 2304,
            "type" : "VEC3"
        },
        {
            "bufferView" : 6,
            "componentType" : 5126,
            "count" : 2304,
            "type" : "VEC2"
        },
        {
            "bufferView" : 7,
            "componentType" : 5123,
            "count" : 3456,
            "type" : "SCALAR"
        },
        {
            "bufferView" : 8,
            "componentType" : 5126,
            "count" : 1984,
            "max" : [
                3.1782636642456055,
                0.1874900460243225,
                0.18748994171619415
            ],
            "min" : [
                2.80328369140625,
                -0.1874900460243225,
                -0.1874898076057434
            ],
            "type" : "VEC3"
        },
        {
            "bufferView" : 9,
            "componentType" : 5126,
            "count" : 1984,
            "type" : "VEC3"
        },
        {
            "bufferView" : 10,
            "componentType" : 5126,
            "count" : 1984,
            "type" : "VEC2"
        },
        {
            "bufferView" : 11,
            "componentType" : 5123,
            "count" : 2880,
            "type" : "SCALAR"
        },
        {
            "bufferView" : 12,
            "componentType" : 5126,
            "count" : 1984,
            "max" : [
                3.1782636642456055,
                0.1874900460243225,
                0.18748994171619415
            ],
            "min" : [
                2.80328369140625,
                -0.1874900460243225,
                -0.1874898076057434
            ],
            "type" : "VEC3"
        },
        {
            "bufferView" : 13,
            "componentType" : 5126,
            "count" : 1984,
            "type" : "VEC3"
        },
        {
            "bufferView" : 14,
            "componentType" : 5126,
            "count" : 1984,
            "type" : "VEC2"
        },
        {
            "bufferView" : 15,
            "componentType" : 5126,
            "count" : 1984,
            "max" : [
                2.302286386489868,
                0.1874900460243225,
                2.302286386489868
            ],
            "min" : [
                1.9273065328598022,
                -0.1874900460243225,
                1.9273065328598022
            ],
            "type" : "VEC3"
        },
        {
            "bufferView" : 16,
            "componentType" : 5126,
            "count" : 1984,
            "type" : "VEC3"
        },
        {
            "bufferView" : 17,
            "componentType" : 5126,
            "count" : 1984,
            "type" : "VEC2"
        },
        {
            "bufferView" : 18,
            "componentType" : 5123,
            "count" : 2880,
            "type" : "SCALAR"
        },
        {
            "bufferView" : 19,
            "componentType" : 5126,
            "count" : 1984,
            "max" : [
                0.1874898076057434,
                0.1874900460243225,
                3.1782636642456055
            ],
            "min" : [
                -0.18748994171619415,
                -0.1874900460243225,
                2.80328369140625
            ],
            "type" : "VEC3"
        },
        {
            "bufferView" : 20,
            "componentType" : 5126,
            "count" : 1984,
            "type" : "VEC3"
        },
        {
            "bufferView" : 21,
            "componentType" : 5126,
            "count" : 1984,
            "type" : "VEC2"
        },
        {
            "bufferView" : 22,
            "componentType" : 5123,
            "count" : 2880,
            "type" : "SCALAR"
        },
        {
            "bufferView" : 23,
            "componentType" : 5126,
            "count" : 1984,
            "max" : [
                -1.9273065328598022,
                0.1874900460243225,
                2.302286386489868
            ],
            "min" : [
                -2.302286386489868,
                -0.1874900460243225,
                1.9273065328598022
            ],
            "type" : "VEC3"
        },
        {
            "bufferView" : 24,
            "componentType" : 5126,
            "count" : 1984,
            "type" : "VEC3"
        },
        {
            "bufferView" : 25,
            "componentType" : 5126,
            "count" : 1984,
            "type" : "VEC2"
        },
        {
            "bufferView" : 26,
            "componentType" : 5123,
            "count" : 2880,
            "type" : "SCALAR"
        },
        {
            "bufferView" : 27,
            "componentType" : 5126,
            "count" : 1984,
            "max" : [
                -2.80328369140625,
                0.1874900460243225,
                0.1874898076057434
            ],
            "min" : [
                -3.1782636642456055,
                -0.1874900460243225,
                -0.18748994171619415
            ],
            "type" : "VEC3"
        },
        {
            "bufferView" : 28,
            "componentType" : 5126,
            "count" : 1984,
            "type" : "VEC3"
        },
        {
            "bufferView" : 29,
            "componentType" : 5126,
            "count" : 1984,
            "type" : "VEC2"
        },
        {
            "bufferView" : 30,
            "componentType" : 5123,
            "count" : 2880,
            "type" : "SCALAR"
        },
        {
            "bufferView" : 31,
            "componentType" : 5126,
            "count" : 1984,
            "max" : [
                -1.9273065328598022,
                0.1874900460243225,
                -1.9273062944412231
            ],
            "min" : [
                -2.302286386489868,
                -0.1874900460243225,
                -2.302286148071289
            ],
            "type" : "VEC3"
        },
        {
            "bufferView" : 32,
            "componentType" : 5126,
            "count" : 1984,
            "type" : "VEC3"
        },
        {
            "bufferView" : 33,
            "componentType" : 5126,
            "count" : 1984,
            "type" : "VEC2"
        },
        {
            "bufferView" : 34,
            "componentType" : 5123,
            "count" : 2880,
            "type" : "SCALAR"
        },
        {
            "bufferView" : 35,
            "componentType" : 5126,
            "count" : 1984,
            "max" : [
                0.18748994171619415,
                0.1874900460243225,
                -2.80328369140625
            ],
            "min" : [
                -0.1874898076057434,
                -0.1874900460243225,
                -3.1782634258270264
            ],
            "type" : "VEC3"
        },
        {
            "bufferView" : 36,
            "componentType" : 5126,
            "count" : 1984,
            "type" : "VEC3"
        },
        {
            "bufferView" : 37,
            "componentType" : 5126,
            "count" : 1984,
            "type" : "VEC2"
        },
        {
            "bufferView" : 38,
            "componentType" : 5123,
            "count" : 2880,
            "type" : "SCALAR"
        },
        {
            "bufferView" : 39,
            "componentType" : 5126,
            "count" : 1984,
            "max" : [
                2.302286148071289,
                0.1874900460243225,
                -1.9273065328598022
            ],
            "min" : [
                1.9273062944412231,
                -0.1874900460243225,
                -2.302286386489868
            ],
            "type" : "VEC3"
        },
        {
            "bufferView" : 40,
            "componentType" : 5126,
            "count" : 1984,
            "type" : "VEC3"
        },
        {
            "bufferView" : 41,
            "componentType" : 5126,
            "count" : 1984,
            "type" : "VEC2"
        },
        {
            "bufferView" : 42,
            "componentType" : 5123,
            "count" : 2880,
            "type" : "SCALAR"
        }
    ],
    "bufferViews" : [
        {
            "buffer" : 0,
            "byteLength" : 23808,
            "byteOffset" : 0
        },
        {
            "buffer" : 0,
            "byteLength" : 23808,
            "byteOffset" : 23808
        },
        {
            "buffer" : 0,
            "byteLength" : 15872,
            "byteOffset" : 47616
        },
        {
            "buffer" : 0,
            "byteLength" : 5760,
            "byteOffset" : 63488
        },
        {
            "buffer" : 0,
            "byteLength" : 27648,
            "byteOffset" : 69248
        },
        {
            "buffer" : 0,
            "byteLength" : 27648,
            "byteOffset" : 96896
        },
        {
            "buffer" : 0,
            "byteLength" : 18432,
            "byteOffset" : 124544
        },
        {
            "buffer" : 0,
            "byteLength" : 6912,
            "byteOffset" : 142976
        },
        {
            "buffer" : 0,
            "byteLength" : 23808,
            "byteOffset" : 149888
        },
        {
            "buffer" : 0,
            "byteLength" : 23808,
            "byteOffset" : 173696
        },
        {
            "buffer" : 0,
            "byteLength" : 15872,
            "byteOffset" : 197504
        },
        {
            "buffer" : 0,
            "byteLength" : 5760,
            "byteOffset" : 213376
        },
        {
            "buffer" : 0,
            "byteLength" : 23808,
            "byteOffset" : 219136
        },
        {
            "buffer" : 0,
            "byteLength" : 23808,
            "byteOffset" : 242944
        },
        {
            "buffer" : 0,
            "byteLength" : 15872,
            "byteOffset" : 266752
        },
        {
            "buffer" : 0,
            "byteLength" : 23808,
            "byteOffset" : 282624
        },
        {
            "buffer" : 0,
            "byteLength" : 23808,
            "byteOffset" : 306432
        },
        {
            "buffer" : 0,
            "byteLength" : 15872,
            "byteOffset" : 330240
        },
        {
            "buffer" : 0,
            "byteLength" : 5760,
            "byteOffset" : 346112
        },
        {
            "buffer" : 0,
            "byteLength" : 23808,
            "byteOffset" : 351872
        },
        {
            "buffer" : 0,
            "byteLength" : 23808,
            "byteOffset" : 375680
        },
        {
            "buffer" : 0,
            "byteLength" : 15872,
            "byteOffset" : 399488
        },
        {
            "buffer" : 0,
            "byteLength" : 5760,
            "byteOffset" : 415360
        },
        {
            "buffer" : 0,
            "byteLength" : 23808,
            "byteOffset" : 421120
        },
        {
            "buffer" : 0,
            "byteLength" : 23808,
            "byteOffset" : 444928
        },
        {
            "buffer" : 0,
            "byteLength" : 15872,
            "byteOffset" : 468736
        },
        {
            "buffer" : 0,
            "byteLength" : 5760,
            "byteOffset" : 484608
        },
        {
            "buffer" : 0,
            "byteLength" : 23808,
            "byteOffset" : 490368
        },
        {
            "buffer" : 0,
            "byteLength" : 23808,
            "byteOffset" : 514176
        },
        {
            "buffer" : 0,
            "byteLength" : 15872,
            "byteOffset" : 537984
        },
        {
            "buffer" : 0,
            "byteLength" : 5760,
            "byteOffset" : 553856
        },
        {
            "buffer" : 0,
            "byteLength" : 23808,
            "byteOffset" : 559616
        },
        {
            "buffer" : 0,
            "byteLength" : 23808,
            "byteOffset" : 583424
        },
        {
            "buffer" : 0,
            "byteLength" : 15872,
            "byteOffset" : 607232
        },
        {
            "buffer" : 0,
            "byteLength" : 5760,
            "byteOffset" : 623104
        },
        {
            "buffer" : 0,
            "byteLength" : 23808,
            "byteOffset" : 628864
        },
        {
            "buffer" : 0,
            "byteLength" : 23808,
            "byteOffset" : 652672
        },
        {
            "buffer" : 0,
            "byteLength" : 15872,
            "byteOffset" : 676480
        },
        {
            "buffer" : 0,
            "byteLength" : 5760,
            "byteOffset" : 692352
        },
        {
            "buffer" : 0,
            "byteLength" : 23808,
            "byteOffset" : 698112
        },
        {
            "buffer" : 0,
            "byteLength" : 23808,
            "byteOffset" : 721920
        },
        {
            "buffer" : 0,
            "byteLength" : 15872,
            "byteOffset" : 745728
        },
        {
            "buffer" : 0,
            "byteLength" : 5760,
            "byteOffset" : 761600
        }
    ],
    "buffers" : [
        {
            "byteLength" : 767360,
            "uri" : "data:application/octet-stream;base64,"
        }
    ]
}
